# xmcd
#
# Track frame offsets: 
#        150
#        13432
#        27320
#        35857
#        49045
#        68662
#        84867
#        94357
#        104162
#        114210
#        130702
#        143902
#        155595
#        165822
#        183342
#        193717
#        207045
#        216947
#
# Disc length: 3075 seconds
#
# Revision: 0
# Processed by: cddbd v1.4PL0 Copyright (c) Steve Scherf et al.
# Submitted via: ExactAudioCopy v0.90b4
#
DISCID=fa0c0112
DTITLE=Foster and Allen - Foster and Allen's Christmas Collection
DYEAR=1990
DGENRE=Christmas
TTITLE0=Silent Night
TTITLE1=An Old Christmas Card
TTITLE2=Rudolph The Red Nosed Reindeer
TTITLE3=The Greatest Gift Of All
TTITLE4=Christmas Time In Ireland
TTITLE5=White Christmas
TTITLE6=Jingle Bells
TTITLE7=Winter Wonderland
TTITLE8=Sleigh Ride
TTITLE9=Mary's Boy Child
TTITLE10=Silver Bells
TTITLE11=The Christmas Polka
TTITLE12=Blue Christmas
TTITLE13=Jamie's Christmas Song
TTITLE14=Snowflake
TTITLE15=Let It Stay White
TTITLE16=Christmas Medley
TTITLE17=At This Time Of Year
EXTD=
EXTT0=
EXTT1=
EXTT2=
EXTT3=
EXTT4=
EXTT5=
EXTT6=
EXTT7=
EXTT8=
EXTT9=
EXTT10=
EXTT11=
EXTT12=
EXTT13=
EXTT14=
EXTT15=
EXTT16=
EXTT17=
PLAYORDER=
